PathFileType	4	(X/Y/Z)	./resultDataOpenSim/trcMotMarkerGrf/sub09/qtm-02-02.trc
DataRate	CameraRate	NumFrames	NumMarkers	Units	OrigDataRate	OrigDataStartFrame	OrigNumFrames
250.000000	250.000000	10	24	m	250.000000	424	484
Frame#	Time	L.Toe.Tip			R.Toe.Tip			L.Ankle.Lat			R.Ankle.Lat			L.Ankle.Med			R.Ankle.Med			L.Heel			R.Heel			L.Knee.Lat			R.Knee.Lat			L.Knee.Med			R.Knee.Med			L.Thigh.Upper			R.Thigh.Upper			L.ASIS			R.ASIS			V.Sacral			L.Acromium			R.Acromium			C7			L.Elbow			R.Elbow			L.Wrist.Lat			R.Wrist.Lat
		X1	Y1	Z1	X2	Y2	Z2	X3	Y3	Z3	X4	Y4	Z4	X5	Y5	Z5	X6	Y6	Z6	X7	Y7	Z7	X8	Y8	Z8	X9	Y9	Z9	X10	Y10	Z10	X11	Y11	Z11	X12	Y12	Z12	X13	Y13	Z13	X14	Y14	Z14	X15	Y15	Z15	X16	Y16	Z16	X17	Y17	Z17	X18	Y18	Z18	X19	Y19	Z19	X20	Y20	Z20	X21	Y21	Z21	X22	Y22	Z22	X23	Y23	Z23	X24	Y24	Z24

424	1.692	1.6802696	0.11834417	-0.018890152	0.98490797	0.038630907	0.10894827	1.5300554	0.083999447	-0.051931356	0.84442189	0.082494159	0.13748954	1.5489961	0.11275605	0.040273163	0.86914289	0.11722697	0.047380796	1.4849413	0.021325229	-0.0019635712	0.7743275	0.079276726	0.084955995	1.3873238	0.47728886	-0.088459237	1.0848256	0.48188946	0.20400633	1.3877878	0.4694761	0.038386488	1.0722743	0.47168129	0.072489113	1.2053774	0.84967625	-0.12602274	1.1566957	0.87690413	0.24297191	1.2700954	0.94383891	-0.063160007	1.2612028	0.95693107	0.1776138	1.0954178	0.99669643	0.040609574	1.2234015	1.4026346	-0.12393387	1.2100648	1.4153952	0.20775221	1.1502573	1.4553513	0.041195917	1.0620465	1.0723454	-0.18184512	1.1001127	1.0600933	0.30826623	1.1669365	0.83646749	-0.23565043	1.3192246	0.88850736	0.29314193
425	1.696	1.6832498	0.11298828	-0.018693946	0.98509557	0.038722196	0.10913507	1.5326911	0.081644389	-0.051844557	0.84536058	0.08417868	0.1381158	1.5515979	0.11026772	0.040642212	0.87036799	0.11876905	0.048000021	1.485825	0.020509391	-0.0020037111	0.7751642	0.081878182	0.085602959	1.3944174	0.47670044	-0.08853908	1.0901972	0.48077466	0.20415235	1.3955756	0.46965184	0.038234872	1.0777834	0.47098198	0.072700501	1.2112405	0.84913513	-0.12671395	1.1628311	0.87581704	0.24242279	1.2763103	0.94303689	-0.063735246	1.267942	0.95567741	0.17717564	1.1014516	0.99551917	0.040029328	1.2288711	1.4016346	-0.12448445	1.2153064	1.4142866	0.20728425	1.1553944	1.454311	0.040399956	1.0679254	1.0711518	-0.18250223	1.1053559	1.0589571	0.307422	1.1727209	0.83526599	-0.23613846	1.3241534	0.88688766	0.2930324
426	1.7	1.6864293	0.1068267	-0.018544774	0.98531145	0.03883537	0.10929595	1.5351437	0.079585483	-0.051361793	0.84640966	0.085996437	0.13870578	1.5542747	0.10814192	0.041264378	0.87174653	0.12038237	0.048605212	1.4864408	0.020352927	-0.0017823597	0.77614838	0.084634958	0.086145414	1.4013794	0.47610927	-0.08872392	1.0939483	0.47974838	0.20465368	1.403203	0.46976642	0.037948446	1.0832139	0.46994561	0.072694222	1.21705	0.84865605	-0.12744146	1.1688641	0.87470854	0.24186586	1.2824959	0.94234326	-0.064305917	1.2746086	0.9544579	0.17671897	1.1074795	0.99439283	0.039492954	1.2343441	1.4006659	-0.1250406	1.2205582	1.413143	0.20680476	1.1605889	1.4532823	0.039692777	1.0738322	1.0699686	-0.18317136	1.1106919	1.0578924	0.30663284	1.1785564	0.83409452	-0.23662142	1.3290236	0.88525379	0.29292484
427	1.704	1.6900132	0.099925891	-0.018344555	0.98557667	0.038972171	0.10942896	1.537556	0.078064603	-0.050582905	0.84757693	0.087963625	0.13926554	1.5573696	0.10649184	0.042031183	0.87328163	0.12207515	0.049207167	1.4870274	0.021064504	-0.0012142692	0.77725866	0.087546336	0.086650546	1.4081765	0.47558146	-0.089041937	1.0974918	0.47876532	0.20525597	1.4106548	0.46982341	0.037541894	1.0889476	0.46859988	0.072747386	1.2228367	0.84820091	-0.1281969	1.1749563	0.87356267	0.24127118	1.2886135	0.94176799	-0.06485874	1.2811	0.95329447	0.17624246	1.1134896	0.99335435	0.039043491	1.2398204	1.3997364	-0.12560689	1.2258635	1.4120459	0.20631089	1.1659086	1.4522886	0.039155663	1.079789	1.0688043	-0.18384544	1.1161108	1.0568828	0.30587541	1.1844348	0.83296116	-0.23709624	1.3338332	0.88360337	0.2928161
428	1.708	1.6939792	0.092787553	-0.017959638	0.9858906	0.039109736	0.10956974	1.5400626	0.077157597	-0.049762573	0.84884307	0.090072894	0.13982457	1.560988	0.10519815	0.042766297	0.87496406	0.12385205	0.04982752	1.4878497	0.022491956	-0.00029828045	0.77848856	0.090619908	0.087177933	1.4148342	0.47519722	-0.089451781	1.1020125	0.47778049	0.20576631	1.4179231	0.46984978	0.037092204	1.0953366	0.46704273	0.073132026	1.2286288	0.847747	-0.12897107	1.1811258	0.872392	0.24063504	1.2946593	0.94131905	-0.065398929	1.2874743	0.95218116	0.17574164	1.1194661	0.99243612	0.038687892	1.2452949	1.3988558	-0.1261916	1.2312248	1.4110491	0.20580327	1.1713237	1.4513729	0.038727153	1.0858005	1.0676664	-0.18452052	1.1215865	1.0559127	0.30512148	1.1903608	0.83186434	-0.23756032	1.3385868	0.88193399	0.29270708
429	1.712	1.6980537	0.086095966	-0.017329171	0.98622791	0.039217258	0.10976915	1.5427477	0.076698583	-0.04914588	0.85018754	0.09230092	0.14042157	1.5649029	0.10402896	0.043337193	0.87678332	0.12571302	0.050484631	1.4890523	0.024224514	0.00075323434	0.77985036	0.093867682	0.087764719	1.4214138	0.47502072	-0.089881175	1.1077257	0.47677369	0.20616536	1.4250097	0.46992108	0.036692261	1.1023063	0.46542292	0.073813151	1.2344522	0.8473001	-0.12976112	1.1873874	0.87119553	0.23997811	1.3006541	0.94098845	-0.065948923	1.2938182	0.95110753	0.17522435	1.1254011	0.99164093	0.038397459	1.2507652	1.3980349	-0.12680177	1.2366206	1.4101614	0.20528882	1.1767219	1.4505821	0.038239842	1.0918527	1.0665575	-0.18518932	1.1270955	1.0549869	0.30434935	1.1963503	0.83079125	-0.23801351	1.3432907	0.8802494	0.29260237
430	1.716	1.7018926	0.080250403	-0.016514883	0.98657251	0.039300718	0.1100352	1.5456431	0.076393957	-0.048831174	0.85162378	0.09463357	0.14108393	1.5687344	0.10284883	0.043708598	0.87873672	0.12766318	0.051185744	1.4905368	0.025929786	0.0015201219	0.78136386	0.097305433	0.088425497	1.4279819	0.47509181	-0.090282972	1.11458	0.47572454	0.20644159	1.4319218	0.47014958	0.036391841	1.1094195	0.46388658	0.074470482	1.240317	0.84689836	-0.13056465	1.1937295	0.86997409	0.23931884	1.3066109	0.94075987	-0.066539166	1.3001766	0.95007424	0.17470182	1.1312993	0.99094075	0.038134465	1.2562316	1.3972857	-0.12743271	1.2420409	1.4093601	0.2047774	1.1820375	1.4499257	0.037584237	1.0979352	1.0654731	-0.18584738	1.1326081	1.0541253	0.30353494	1.202411	0.82973687	-0.23845552	1.3479522	0.87855622	0.29250785
431	1.72	1.7052762	0.075211985	-0.015626232	0.98693694	0.03940294	0.11031547	1.548729	0.076030837	-0.048763628	0.85318717	0.097067753	0.14182055	1.5722451	0.10168901	0.043913845	0.88083444	0.12971131	0.051925793	1.4921132	0.027450404	0.0017397095	0.78304977	0.10094964	0.089148104	1.4345943	0.47543388	-0.090649168	1.1227247	0.47461663	0.20650664	1.4386778	0.47063872	0.036178795	1.116398	0.46247853	0.074862421	1.246215	0.84659994	-0.13137446	1.2001259	0.86873763	0.23866345	1.3125246	0.94062923	-0.06718792	1.3065559	0.94909345	0.17416643	1.1371793	0.99030763	0.037890439	1.2616905	1.3966204	-0.12806767	1.2474885	1.4086195	0.20427452	1.1873261	1.4493702	0.036820376	1.1040567	1.0644149	-0.18649736	1.1381024	1.0533424	0.30266984	1.2085346	0.82871748	-0.23888195	1.3525713	0.87686028	0.29242818
432	1.724	1.7081522	0.070721225	-0.014712321	0.98733994	0.039558576	0.11054178	1.5519193	0.075570264	-0.048830324	0.85488559	0.099608436	0.14262412	1.5754368	0.10064329	0.044003689	0.88309786	0.13186271	0.052691183	1.493666	0.028712284	0.0015157247	0.78492727	0.10480934	0.089888932	1.4412897	0.47605402	-0.090980604	1.1320366	0.47347233	0.20632023	1.4453196	0.47144151	0.035994603	1.1233758	0.46115853	0.075051191	1.2521424	0.84646393	-0.1321832	1.2065978	0.86748078	0.23802178	1.3183909	0.94061093	-0.067883619	1.3129428	0.94817911	0.17360071	1.143058	0.98973951	0.037681485	1.2671371	1.3960485	-0.12869695	1.2529665	1.4079411	0.20377553	1.1926666	1.4488878	0.03608202	1.1102299	1.0634068	-0.18714397	1.14357	1.0526329	0.3017766	1.2147102	0.82775849	-0.2392884	1.3571299	0.87517134	0.29236672
433	1.728	1.7105736	0.066530433	-0.01374401	0.98778463	0.039769978	0.11069248	1.5550573	0.075079084	-0.048943454	0.85669488	0.10228328	0.14346269	1.5783676	0.099734402	0.044026218	0.88555365	0.13411995	0.053467502	1.4951366	0.029690714	0.0010979678	0.78701306	0.10888721	0.090592015	1.4481111	0.47693577	-0.091263995	1.1412308	0.47239255	0.20608598	1.4519185	0.47255086	0.035762241	1.1305524	0.45988322	0.075228013	1.2581129	0.8465328	-0.13298181	1.2131731	0.86620638	0.23740681	1.3242216	0.94072301	-0.068591435	1.31932	0.94733493	0.17299989	1.1489385	0.98925626	0.03753156	1.2725734	1.3955701	-0.12932704	1.2584659	1.4073551	0.2032682	1.1980646	1.4484665	0.035430001	1.1164572	1.0624805	-0.18779165	1.1489914	1.0519843	0.30088367	1.2209353	0.82687732	-0.23967547	1.3616031	0.87350322	0.29232451
